<?xml version="1.0" encoding="UTF-8" standalone="no"?>
<!-- Created with Inkscape (http://www.inkscape.org/) -->

<svg
   xmlns:dc="http://purl.org/dc/elements/1.1/"
   xmlns:cc="http://creativecommons.org/ns#"
   xmlns:rdf="http://www.w3.org/1999/02/22-rdf-syntax-ns#"
   xmlns:svg="http://www.w3.org/2000/svg"
   xmlns="http://www.w3.org/2000/svg"
   xmlns:sodipodi="http://sodipodi.sourceforge.net/DTD/sodipodi-0.dtd"
   xmlns:inkscape="http://www.inkscape.org/namespaces/inkscape"
   width="683"
   height="245"
   viewBox="0 0 388.40832 139.17084"
   version="1.1"
   id="svg4947"
   sodipodi:docname="df-patroon1.svg"
   inkscape:version="0.92.3 (2405546, 2018-03-11)">
  <defs
     id="defs4941" />
  <sodipodi:namedview
     id="base"
     pagecolor="#ffffff"
     bordercolor="#666666"
     borderopacity="1.0"
     inkscape:pageopacity="0.0"
     inkscape:pageshadow="2"
     inkscape:zoom="0.98994949"
     inkscape:cx="651.34604"
     inkscape:cy="218.37833"
     inkscape:document-units="mm"
     inkscape:current-layer="layer1"
     showgrid="false"
     units="px"
     inkscape:window-width="1920"
     inkscape:window-height="1015"
     inkscape:window-x="0"
     inkscape:window-y="0"
     inkscape:window-maximized="1" />
  <metadata
     id="metadata4944">
    <rdf:RDF>
      <cc:Work
         rdf:about="">
        <dc:format>image/svg+xml</dc:format>
        <dc:type
           rdf:resource="http://purl.org/dc/dcmitype/StillImage" />
        <dc:title></dc:title>
      </cc:Work>
    </rdf:RDF>
  </metadata>
  <g
     inkscape:label="Layer 1"
     inkscape:groupmode="layer"
     id="layer1"
     transform="translate(0,-157.82914)">
    <path
       style="fill:none;stroke-width:0.28222224;fill-opacity:1;stroke:#000000;stroke-opacity:1"
       d="m 235.2589,182.69563 c -0.87001,-0.50018 -1.55403,-2.04467 -1.6967,-3.83102 l -0.10141,-1.27 27.51665,0.0388 c 28.86931,0.0407 44.39982,0.45928 51.70806,1.39365 1.29276,0.16528 1.35231,0.21583 2.05018,1.7402 0.39531,0.86348 0.67122,1.61753 0.61306,1.67566 -0.0581,0.0581 -2.6952,-0.0303 -5.86017,-0.19655 -13.86988,-0.7285 -40.69723,-0.59232 -58.24779,0.29567 -11.32482,0.57299 -15.18782,0.61012 -15.98188,0.15359 z"
       id="path5634" class="df_part svg_df_neuskap svg_df_front_nose_cover" />
    <path
       style="fill:none;stroke-width:0.28222224;fill-opacity:1;stroke:#000000;stroke-opacity:1"
       d="m 1.9258971,218.39927 c -0.302898,-0.19178 -0.350158,-0.63079 -0.202843,-1.88421 0.365421,-3.10917 3.170619,-13.65034 3.804465,-14.29614 0.114033,-0.11619 0.666877,0.26481 1.22854,0.84667 l 1.021204,1.05791 -0.824918,3.10444 c -0.453705,1.70745 -1.149209,4.87962 -1.545566,7.04928 -0.396356,2.16966 -0.871844,4.04097 -1.056643,4.15846 -0.458893,0.29177 -1.941078,0.26951 -2.424239,-0.0364 z"
       id="path5632" class="df_part svg_df_achterlichtkap svg_df_rear_light_cover" />
    <path
       style="fill:none;stroke-width:0.28222224;fill-opacity:1;stroke:#000000;stroke-opacity:1"
       d="m 385.8406,238.53446 c 0.24394,-0.24392 0.44349,-0.54122 0.44349,-0.66068 0,-0.11945 0.13904,-1.25031 0.30898,-2.51302 0.34161,-2.53829 -0.0526,-7.72832 -0.6409,-8.43712 -0.50967,-0.61413 -1.45825,-0.30328 -1.9051,0.62431 -0.54462,1.13052 -0.75221,6.63598 -0.32531,8.62668 0.33488,1.56146 0.96385,2.80333 1.41978,2.80333 0.14057,0 0.45514,-0.19958 0.69906,-0.4435 z"
       id="path5630" />
    <path
       style="fill:none;stroke-width:0.28222224;fill-opacity:1;stroke:#000000;stroke-opacity:1"
       d="m 384.16742,240.54978 c -0.46566,-0.2099 -1.5744,-1.12682 -2.46385,-2.0376 -1.86616,-1.91092 -2.19392,-2.97619 -2.19122,-7.12219 0.003,-3.66438 0.28112,-4.34954 2.79736,-6.87592 1.19814,-1.20298 2.38754,-2.18723 2.64313,-2.18723 0.66601,0 0.98163,0.74621 1.63687,3.86982 1.15345,5.49865 1.00756,11.68301 -0.32737,13.87812 -0.59182,0.97317 -0.85656,1.0332 -2.09492,0.475 z"
       id="path5628" class="df_part svg_df_neuskap svg_df_front_nose_cover" />
    <path
       style="fill:none;stroke-width:0.28222224;fill-opacity:1;stroke:#000000;stroke-opacity:1"
       d="m 382.71148,220.9481 c 0.41272,-0.75832 0.75038,-1.58177 0.75038,-1.82991 0,-0.63779 -2.15307,-5.55648 -2.64962,-6.05302 -0.36144,-0.36149 -0.55702,-0.35428 -1.58887,0.0586 -2.11984,0.8482 -8.07601,1.09572 -22.93147,0.95297 l -14.04662,-0.13498 0.18317,0.59422 c 0.10073,0.32682 0.42042,1.23515 0.71043,2.01852 l 0.52729,1.4243 8.96173,0.33641 c 4.92895,0.18503 10.48576,0.53195 12.34842,0.77095 3.60117,0.46205 10.27631,1.77044 13.54667,2.65525 3.11277,0.84218 3.31965,0.803 4.18849,-0.79329 z"
       id="path5626" />
    <path
       style="fill:none;stroke-width:0.28222224;fill-opacity:1;stroke:#000000;stroke-opacity:1"
       d="m 180.82636,275.98006 c 4.73726,-1.70855 8.00362,-3.39699 12.98932,-6.71447 3.92359,-2.61072 5.07381,-3.54719 7.24747,-5.90044 3.29528,-3.56754 4.42307,-5.05889 5.94892,-7.86659 1.64542,-3.02771 2.2492,-5.03537 2.64858,-8.80679 0.29393,-2.77548 0.27176,-3.51671 -0.18568,-6.20889 -0.57555,-3.38721 -1.8474,-6.76829 -3.51867,-9.35406 -1.3027,-2.01555 -5.67491,-6.62769 -8.33773,-8.79528 -4.15277,-3.38046 -10.66004,-7.095 -16.08667,-9.18275 -6.2689,-2.4118 -20.24842,-5.99598 -32.87886,-8.42975 l -3.5278,-0.67977 6.8381,-0.0294 6.83811,-0.0294 4.87413,-1.14107 c 6.88109,-1.61092 8.46189,-2.11712 11.55352,-3.69962 3.24522,-1.66115 5.87357,-3.59297 7.68853,-5.65105 1.59263,-1.806 5.81094,-8.04308 5.81094,-8.59192 0,-0.78908 -0.84297,-0.33931 -3.28451,1.75244 -3.97069,3.40181 -7.93282,5.30337 -14.20445,6.8172 -2.80871,0.67796 -3.48425,0.72347 -12.28547,0.82773 -5.12233,0.0607 -10.51983,0.008 -11.99444,-0.11773 l -2.68113,-0.22803 2.11326,-0.65694 c 1.16229,-0.36131 2.61482,-0.91281 3.22784,-1.22554 1.1018,-0.56211 1.16321,-0.56295 5.36561,-0.074 5.18936,0.60374 8.98893,0.44581 13.98775,-0.58141 6.86289,-1.41029 10.60111,-3.00663 17.72597,-7.56953 6.1019,-3.90778 6.52881,-4.07628 11.53454,-4.55299 7.68477,-0.73185 23.79037,-1.55419 30.43874,-1.55419 h 3.40386 l 0.30872,1.80224 c 0.76536,4.46821 2.09428,5.11885 9.54259,4.67209 14.26868,-0.85586 43.35791,-1.44001 54.75108,-1.09948 4.65666,0.13918 11.29241,0.34001 14.74613,0.44627 3.76772,0.11593 6.27943,0.0895 6.27943,-0.066 0,-0.1426 -0.4445,-0.91931 -0.98777,-1.72604 -0.99298,-1.47448 -1.24603,-2.3357 -0.68625,-2.3357 1.40346,0 14.94076,3.32123 20.30069,4.98056 8.86788,2.74531 23.40224,9.34003 31.00189,14.06657 6.56055,4.08027 13.59011,11.30168 16.48632,16.93622 1.71961,3.34551 0.99422,5.68951 -2.6217,8.47192 -2.56969,1.97733 -2.68502,2.30563 -2.61557,7.44661 0.0549,4.06474 0.10726,4.44656 0.80473,5.87216 0.82172,1.67954 2.60056,3.27097 4.87545,4.36178 1.34956,0.64712 1.3715,0.6784 1.25257,1.78753 -0.0666,0.62089 -0.57703,2.07885 -1.13433,3.23991 -0.83716,1.7442 -1.58123,2.67943 -4.28185,5.38215 -3.82651,3.82945 -6.9863,6.0378 -12.29974,8.59613 -15.42823,7.42847 -30.37824,10.81858 -62.19587,14.10367 -3.78415,0.39071 -7.3687,0.71035 -7.96568,0.71035 h -1.08535 l 0.83513,-2.26502 c 1.89045,-5.12714 2.31077,-7.34467 2.45931,-12.97498 0.20529,-7.78153 -0.6654,-11.92492 -3.88464,-18.48554 -2.09267,-4.2648 -4.41151,-7.344 -8.50128,-11.28889 -7.79983,-7.52347 -18.1475,-11.29644 -29.51832,-10.76297 -9.8116,0.46031 -18.54035,4.20634 -25.68286,11.02203 -11.61857,11.08694 -15.27544,27.42265 -9.51685,42.51276 0.54705,1.43346 0.91795,2.68322 0.82423,2.77725 -0.0937,0.094 -2.2873,0.20469 -4.87462,0.24593 -2.58736,0.0412 -11.7674,0.2635 -20.40009,0.49388 -8.63272,0.23039 -16.76072,0.41235 -18.06223,0.40433 l -2.36638,-0.0146 z"
       id="path5624" class="df_part svg_df_bovenhelft_carrosserie svg_df_top_half_body" />
    <path
       style="fill:none;stroke-width:0.28222224;fill-opacity:1;stroke:#000000;stroke-opacity:1"
       d="m 17.265291,219.90863 c 0.60012,-0.9159 1.146387,-3.83044 1.794854,-9.57624 l 0.509625,-4.51556 -0.581147,-0.23862 c -0.319632,-0.13124 -2.179248,-0.30738 -4.132482,-0.39143 -3.469177,-0.14927 -3.566321,-0.13722 -4.199313,0.52085 -1.5730359,1.63534 -3.3912849,7.26824 -3.3951559,10.51813 -0.0021,1.75568 0.668862,3.29267 1.626514,3.72595 0.268496,0.12147 1.9486769,0.30232 3.7337339,0.40187 1.785054,0.0996 3.453199,0.20327 3.706984,0.23047 0.253789,0.0272 0.675162,-0.27674 0.936387,-0.67542 z"
       id="path5622" />
    <path
       style="fill:none;stroke-width:0.28222224;fill-opacity:1;stroke:#000000;stroke-opacity:1"
       d="m 87.975237,219.25444 v -2.50795 l -1.199436,-0.1709 c -0.659686,-0.094 -5.263436,-0.42916 -10.230551,-0.74483 -13.855438,-0.8805 -22.95089,-1.86749 -32.562133,-3.53346 -4.774412,-0.82756 -7.301863,-1.451 -15.936143,-3.93092 -3.531094,-1.0142 -6.599874,-1.84399 -6.819513,-1.84399 -0.22374,0 -0.521959,0.46538 -0.67819,1.05833 -0.493737,1.87392 -1.225974,7.48659 -1.261058,9.66612 l -0.03407,2.11667 1.552223,0.53982 c 1.452645,0.50519 2.910086,0.55303 22.718887,0.7456 17.88052,0.17382 34.495462,0.60308 36.688884,0.94787 0.310436,0.0488 2.183686,0.10603 4.162769,0.12717 l 3.598334,0.0384 z"
       id="path5620" />
    <path
       style="fill:none;stroke-width:0.28222224;fill-opacity:1;stroke:#000000;stroke-opacity:1"
       d="m 56.789696,263.61761 c -15.81123,-1.41496 -20.719894,-2.39027 -22.763416,-4.52292 -0.562192,-0.58671 -1.228892,-1.47748 -1.481551,-1.9795 -0.817028,-1.62343 -2.975139,-7.73242 -4.164044,-11.78723 -0.971652,-3.31386 -1.163809,-4.38354 -1.191413,-6.63223 -0.03929,-3.20107 0.64739,-5.14954 1.997837,-5.66889 1.24443,-0.47857 27.80403,0.32184 29.814766,0.89851 1.323451,0.37956 2.128297,1.34718 2.723536,3.27433 1.050308,3.4005 3.670739,20.54029 3.671721,24.0161 2.56e-4,0.91112 -0.17176,1.38438 -0.692389,1.905 -0.65701,0.65701 -0.849807,0.6903 -3.739443,0.64529 -1.675696,-0.0262 -3.554717,-0.0929 -4.175604,-0.14846 z"
       id="path5618" class="df_part svg_df_derailleurkap svg_df_derailleur_cover" />
    <path
       style="fill:none;stroke-width:0.28222224;fill-opacity:1;stroke:#000000;stroke-opacity:1"
       d="m 64.761597,264.61634 c 1.406414,-0.43217 1.764763,-1.17703 1.764763,-3.66829 0,-5.14578 -3.01548,-23.76633 -4.167039,-25.7314 -0.269296,-0.45953 -0.965023,-1.21975 -1.546067,-1.68937 -0.966673,-0.7813 -1.3024,-0.87136 -3.95111,-1.05994 -4.997902,-0.35582 -22.517137,-0.89639 -25.566611,-0.78888 -2.873073,0.1013 -2.928387,0.11628 -3.725047,1.00839 -1.622707,1.81715 -2.096663,5.44655 -1.247875,9.55581 1.013008,4.90428 4.831254,15.62273 6.123984,17.19104 1.956962,2.37414 6.916616,3.70147 17.949794,4.80391 10.059453,1.00513 12.147566,1.06016 14.365208,0.37873 z"
       id="path5616" />
    <path
       style="fill:none;stroke-width:0.28222224;fill-opacity:1;stroke:#000000;stroke-opacity:1"
       d="M 82.189699,277.5148 C 78.291328,277.10401 55.325992,273.99507 50.580806,273.23574 43.495365,272.10193 27.593804,269.12153 24.513308,268.34998 15.346422,266.054 10.932902,262.7392 8.3087381,256.17943 7.5126061,254.18929 3.9674991,242.09488 2.2739561,235.59129 l -1.065617,-4.09222 -0.0082,-5.90489 -0.0082,-5.90489 1.886196,0.0676 c 2.413399,0.0864 2.504062,-0.0452 3.477482,-5.05 0.407575,-2.09551 1.123268,-5.38516 1.590429,-7.31035 l 0.84939,-3.50035 -0.637802,-0.87409 c -0.35079,-0.48076 -0.883286,-1.21128 -1.18332,-1.62339 -0.343557,-0.47188 -0.457873,-0.88982 -0.30878,-1.12889 0.130207,-0.20878 0.272759,-0.61098 0.316783,-0.89377 0.291441,-1.87208 2.8791019,-5.65487 7.3539409,-10.75042 9.62886,-10.96447 20.374263,-16.32383 47.273363,-23.57795 14.550004,-3.92383 16.888762,-4.27886 29.321003,-4.45102 9.573476,-0.13257 9.829696,-0.12167 11.712236,0.49864 2.79479,0.92089 3.54634,1.83244 5.70582,6.92048 3.80087,8.95537 7.77774,14.70176 11.46188,16.5619 3.27538,1.65375 11.82666,3.83323 21.18878,5.40042 3.0057,0.50315 5.5331,0.983 5.61645,1.06635 0.1811,0.1811 -6.39721,1.82303 -8.60497,2.14777 -1.00253,0.14747 -4.20156,0.034 -9.03346,-0.32049 -7.76705,-0.56978 -9.10812,-0.521 -10.20807,0.3713 l -0.65513,0.53146 0.70556,0.76099 c 1.09119,1.17694 6.92441,4.89616 9.59554,6.11806 1.3194,0.60355 3.1609,1.46255 4.09223,1.90889 0.93133,0.44635 2.01083,0.89817 2.3989,1.00405 0.38803,0.10588 0.96776,0.3573 1.28825,0.55871 0.32052,0.2014 4.3769,1.02202 9.01422,1.82359 18.30113,3.16336 33.26993,7.24602 41.23461,11.24652 11.34258,5.69712 18.63936,13.21944 21.04987,21.70044 0.48147,1.69396 0.62498,2.94425 0.62498,5.44449 0,2.50023 -0.14351,3.75052 -0.62498,5.44449 -1.94815,6.85429 -6.97264,12.96654 -15.01362,18.26392 -2.75788,1.81689 -10.78531,5.92492 -11.57777,5.92492 -0.24471,0 -0.56554,0.12001 -0.71302,0.26672 -0.14746,0.14669 -1.41111,0.70956 -2.80811,1.25085 -1.397,0.54126 -3.048,1.21499 -3.66889,1.49717 -1.07117,0.48681 -2.91098,0.51371 -35.98334,0.52615 -19.16993,0.007 -38.727936,0.0972 -43.462205,0.20005 -6.442789,0.13994 -9.530583,0.0897 -12.276666,-0.19965 z"
       id="path5614" class="df_part svg_df_onderhelft_carrosserie svg_df_bottom_half_body"  />
    <path
       style="fill:none;stroke-width:0.28222224;fill-opacity:1;stroke:#000000;stroke-opacity:1"
       d="m 61.728583,285.64227 c -6.913271,-0.91027 -13.808517,-3.49203 -19.236116,-7.20249 -2.731016,-1.86701 -7.262839,-5.98315 -6.947151,-6.30989 0.112482,-0.11644 3.604982,0.37547 7.76111,1.09313 4.156133,0.71765 10.795103,1.75524 14.753267,2.30576 3.958167,0.55052 9.835269,1.37996 13.060225,1.8432 7.823343,1.12371 12.847543,1.67132 15.585319,1.69865 3.831351,0.0383 3.81754,0.23452 -0.152374,2.16672 -6.64255,3.23305 -11.124396,4.29361 -18.756503,4.43852 -2.794,0.053 -5.5245,0.0379 -6.067777,-0.0336 z"
       id="path5612" class="svg_df_rear_tyre" />
    <path
       style="fill:none;stroke-width:0.28222224;fill-opacity:1;stroke:#000000;stroke-opacity:1"
       d="m 255.75634,289.47465 c -13.1401,-2.20996 -23.65816,-12.4827 -26.41842,-25.80224 -0.65733,-3.17193 -0.7075,-8.75861 -0.10708,-11.92379 2.22015,-11.70372 10.65779,-20.78124 22.29217,-23.98281 2.58532,-0.71143 3.22492,-0.77508 7.62,-0.75829 4.31281,0.0165 5.08304,0.0961 7.61998,0.78813 9.37861,2.55819 17.03628,8.89216 21.20876,17.54262 2.60837,5.40766 3.58868,10.97983 2.9722,16.89401 -1.45902,13.99714 -11.31917,24.76124 -24.85292,27.13143 -2.52723,0.4426 -8.01255,0.50149 -10.33469,0.11094 z"
       id="path5610" class="df_part svg_df_voorwieldeksels svg_df_front_wheel_covers" />
    <path
       style="fill:none;stroke-width:0.28222224;fill-opacity:1;stroke:#000000;stroke-opacity:1"
       d="m 267.1088,289.94802 c 6.34579,-1.37422 10.815,-3.82278 15.47775,-8.47992 3.96497,-3.96016 6.19977,-7.56677 7.87922,-12.71569 1.0691,-3.27771 1.37049,-6.12571 1.1947,-11.2889 -0.12602,-3.70073 -0.2793,-4.92382 -0.8494,-6.7781 -2.67086,-8.68731 -7.77459,-15.47304 -14.93271,-19.85402 -2.43178,-1.48831 -4.94712,-2.58154 -8.29987,-3.60733 -2.38634,-0.73011 -2.79816,-0.76788 -8.43548,-0.77365 -5.66674,-0.006 -6.03808,0.0279 -8.46667,0.76862 -6.65735,2.03045 -12.45289,6.04903 -16.53078,11.46229 -5.77033,7.6599 -7.64308,18.38357 -4.87527,27.9169 4.17523,14.38106 17.65302,24.36368 32.27159,23.90264 1.94029,-0.0612 4.44538,-0.30998 5.56692,-0.55284 z"
       id="path5608" />
    <path
       style="fill:none;stroke-width:0.28222224;fill-opacity:1;stroke:#000000;stroke-opacity:1"
       d="m 254.62744,295.68569 c -8.21704,-1.1204 -16.16801,-5.20935 -22.05674,-11.34321 -4.5952,-4.78645 -7.65968,-10.38855 -9.33497,-17.06499 -0.6894,-2.74749 -0.76386,-3.54402 -0.7723,-8.26175 -0.0101,-5.57736 0.25435,-7.36211 1.75528,-11.85334 0.94895,-2.83951 3.07305,-7.00758 4.89003,-9.59556 1.91952,-2.73405 6.30674,-7.07393 9.06031,-8.96258 4.5417,-3.1151 10.39883,-5.50273 15.83085,-6.45337 3.15487,-0.55213 10.05912,-0.39441 13.69829,0.31293 7.20389,1.40018 14.22582,5.2842 19.61181,10.84782 3.10208,3.20436 4.82838,5.56067 6.56013,8.95415 2.63808,5.16948 3.81702,10.33285 3.82448,16.74995 0.0116,9.88327 -3.24909,17.96762 -10.15598,25.18116 -5.57752,5.8252 -11.81661,9.39856 -19.09842,10.93838 -3.25158,0.6876 -10.64565,0.98224 -13.81277,0.55041 z"
       id="path4916" />
  </g>
</svg>
