<?xml version="1.0" encoding="UTF-8" standalone="no"?>
<!-- Created with Inkscape (http://www.inkscape.org/) -->

<svg
   xmlns:dc="http://purl.org/dc/elements/1.1/"
   xmlns:cc="http://creativecommons.org/ns#"
   xmlns:rdf="http://www.w3.org/1999/02/22-rdf-syntax-ns#"
   xmlns:svg="http://www.w3.org/2000/svg"
   xmlns="http://www.w3.org/2000/svg"
   xmlns:sodipodi="http://sodipodi.sourceforge.net/DTD/sodipodi-0.dtd"
   xmlns:inkscape="http://www.inkscape.org/namespaces/inkscape"
   width="210mm"
   height="297mm"
   viewBox="0 0 210 297"
   version="1.1"
   id="svg124"
   sodipodi:docname="df-patroon2.svg"
   inkscape:version="0.92.3 (2405546, 2018-03-11)">
  <defs
     id="defs118" />
  <sodipodi:namedview
     id="base"
     pagecolor="#ffffff"
     bordercolor="#666666"
     borderopacity="1.0"
     inkscape:pageopacity="0.0"
     inkscape:pageshadow="2"
     inkscape:zoom="0.98994949"
     inkscape:cx="104.4147"
     inkscape:cy="783.75359"
     inkscape:document-units="mm"
     inkscape:current-layer="layer1"
     showgrid="false"
     inkscape:window-width="1920"
     inkscape:window-height="1015"
     inkscape:window-x="0"
     inkscape:window-y="0"
     inkscape:window-maximized="1" />
  <metadata
     id="metadata121">
    <rdf:RDF>
      <cc:Work
         rdf:about="">
        <dc:format>image/svg+xml</dc:format>
        <dc:type
           rdf:resource="http://purl.org/dc/dcmitype/StillImage" />
      </cc:Work>
    </rdf:RDF>
  </metadata>
  <g
     inkscape:label="Layer 1"
     inkscape:groupmode="layer"
     id="layer1">
    <path
       style="fill:#000000;stroke-width:0.26458332"
       d="m 239.09651,127.19835 c -15.21935,-1.69329 -27.91354,-13.59053 -30.6098,-28.688121 -0.56223,-3.148192 -0.55277,-8.54461 0.0206,-11.76361 1.21561,-6.824332 4.3563,-12.886222 9.33755,-18.022523 4.11023,-4.23817 8.87546,-7.247588 14.37245,-9.076737 4.53424,-1.508792 6.86258,-1.835841 11.90625,-1.672381 4.7272,0.153209 6.34638,0.387508 9.76349,1.41284 9.04096,2.712778 17.56412,9.998088 21.54559,18.416418 1.13221,2.393911 2.38848,6.324682 2.85467,8.932032 0.46773,2.61602 0.46641,9.65694 -0.003,12.03855 -1.43785,7.306732 -4.79438,13.391302 -10.32724,18.720812 -6.75329,6.50508 -13.83255,9.48191 -23.38656,9.83405 -1.77421,0.0654 -4.23786,0.006 -5.47479,-0.13133 z"
       id="path209" />
    <path
       style="fill:#000000;stroke-width:0.26458332"
       d="m 247.97743,122.17128 c 12.04947,-1.67592 21.66791,-10.43698 24.57063,-22.380449 0.38584,-1.587423 0.44347,-2.830782 0.35581,-7.672922 -0.10234,-5.649021 -0.12319,-5.832742 -0.93194,-8.198392 -1.76586,-5.165411 -4.45548,-9.56033 -7.99148,-13.058249 -5.32644,-5.26909 -11.47147,-8.154231 -18.60976,-8.737441 -9.17671,-0.749761 -16.81725,1.875541 -23.03171,7.913722 -6.08318,5.910627 -8.98178,12.793898 -8.98178,21.328927 0,8.141055 2.9185,15.443784 8.54853,21.390364 3.51418,3.71177 7.64934,6.35665 12.44279,7.9585 4.88691,1.63308 9.111,2.08432 13.62891,1.45594 z"
       id="path207" />
    <path
       style="fill:#000000;stroke-width:0.26458332"
       d="m 241.21318,121.52213 c -0.21829,-0.0428 -1.28985,-0.22291 -2.38125,-0.40033 -6.03595,-0.9812 -12.68727,-4.69184 -16.84355,-9.39668 -2.10994,-2.38839 -3.39427,-4.33506 -4.87831,-7.39405 -4.75721,-9.805863 -3.95786,-20.783693 2.15752,-29.629901 2.83232,-4.097092 7.77112,-8.050922 12.4194,-9.942561 6.04323,-2.45931 13.06999,-2.77364 19.17722,-0.85784 6.32725,1.984809 11.65779,5.754619 15.74803,11.13716 1.85925,2.446649 4.09022,7.06928 4.94355,10.243129 0.65114,2.42176 0.71139,3.060372 0.71139,7.54063 0,4.474829 -0.0609,5.121802 -0.70932,7.540633 -0.7828,2.91993 -2.49701,6.69827 -4.10779,9.05408 -4.26265,6.23424 -11.21475,10.60033 -18.85066,11.8387 -2.1731,0.35242 -6.2062,0.49823 -7.38623,0.26703 z"
       id="path205" />
    <path
       style="fill:#000000;stroke-width:0.26458332"
       d="m 57.592349,117.68591 c -7.120787,-0.86261 -14.040819,-3.57515 -19.314584,-7.57099 -3.14285,-2.38128 -5.807077,-4.95886 -5.239292,-5.06888 0.223604,-0.0433 3.131029,0.40236 6.460945,0.99042 5.97929,1.05595 29.017592,4.39382 35.6861,5.17032 1.890879,0.22018 4.391192,0.40215 5.55625,0.40438 2.906657,0.006 3.231708,0.28222 1.431647,1.2185 -4.291216,2.23202 -8.5966,3.74385 -12.674816,4.45074 -3.036536,0.52633 -9.181354,0.73562 -11.90625,0.40551 z"
       id="path203" />
    <path
       style="fill:#000000;stroke-width:0.26458332"
       d="m 80.346515,110.39052 c -0.509323,-0.0576 -2.29526,-0.23276 -3.96875,-0.38916 -3.124626,-0.29203 -23.974687,-3.08024 -28.707291,-3.83894 -6.357073,-1.01912 -20.652622,-3.63352 -23.680212,-4.33069 -4.20878,-0.96917 -7.30913,-2.098589 -9.86029,-3.591971 C 9.1899023,95.347937 7.8735423,92.875329 4.0295823,79.267409 1.1530323,69.084197 0.69849233,66.934547 0.52424233,62.689538 c -0.0874,-2.128941 -0.0767,-4.528341 0.0237,-5.332 l 0.18256,-1.461191 1.81576997,0.102601 c 1.58023,0.0893 1.851,0.0368 2.08737,-0.404911 0.14939,-0.27913 0.75491,-2.822019 1.3456,-5.65087 1.49633,-7.165991 1.4504,-7.030289 2.44639,-7.229491 0.45789,-0.0916 0.88147,-0.117549 0.9413,-0.0577 0.0598,0.0598 -0.12509,0.923859 -0.41094,1.920068 -0.76544,2.667662 -1.89903,8.06663 -1.89903,9.044551 0,1.216401 0.78887,1.447099 4.4291497,1.295242 l 2.97394,-0.124053 1.73809,-1.877298 c 1.95982,-2.11678 3.70467,-3.438192 8.85049,-6.702621 4.85212,-3.07812 7.395733,-4.48878 11.197433,-6.209959 5.671608,-2.56776 5.586458,-2.546572 10.630689,-2.64515 16.298894,-0.31854 29.487907,-0.67083 33.469791,-0.894011 10.326968,-0.578829 20.367705,-1.38247 29.983805,-2.39984 l 2.59942,-0.275011 2.95683,1.930191 c 4.74978,3.100639 9.66874,4.763871 15.52452,5.24927 4.07648,0.33791 15.58015,0.3252 17.72709,-0.0196 3.35766,-0.539221 11.09699,-2.60068 13.22354,-3.522221 3.95966,-1.71595 7.60619,-4.526529 10.10941,-7.7919 l 0.87642,-1.143259 45.37604,0.0272 c 45.7899,0.0274 56.19228,0.184002 62.70624,0.943811 1.96453,0.22915 4.5244,0.517139 5.68854,0.63999 4.43323,0.467789 13.4492,2.68215 20.4461,5.021641 8.21026,2.745198 24.25753,10.38524 28.9918,13.802889 1.82624,1.31835 6.93119,6.11646 9.26743,8.710409 2.06118,2.288492 3.64069,5.030031 4.94983,8.59137 1.52101,4.137552 1.74595,5.274691 2.35915,11.924451 0.53536,5.80586 0.54168,6.22015 0.13118,8.58625 -0.454,2.616541 -0.54716,2.90834 -0.92863,2.90834 -0.12996,0 -0.98613,0.52343 -1.90262,1.163172 -3.60482,2.516338 -14.04329,7.168869 -20.45174,9.115553 -9.40734,2.857629 -19.82089,4.764559 -36.24789,6.637719 -8.95559,1.02119 -15.75961,1.6757 -15.90532,1.53 -0.0638,-0.0638 0.2531,-1.11499 0.70419,-2.33593 0.45112,-1.22094 1.13543,-3.47005 1.52072,-4.99802 0.63691,-2.525884 0.70112,-3.246543 0.70728,-7.937494 0.007,-5.63843 -0.26291,-7.48919 -1.72653,-11.819089 -1.82984,-5.413491 -4.35412,-9.45634 -8.69612,-13.927722 -5.18837,-5.342948 -10.69547,-8.477279 -18.54069,-10.552279 -2.00742,-0.53095 -2.88834,-0.59567 -8.20208,-0.602559 -6.59891,-0.009 -7.854,0.177008 -12.8323,1.897369 -5.39147,1.86313 -9.5912,4.5188 -13.92814,8.807371 -4.51676,4.466378 -7.49885,9.28094 -9.34471,15.086938 -1.18148,3.716261 -1.4762,5.82876 -1.47999,10.608292 -0.005,6.005488 0.49608,8.897923 2.39199,13.813843 0.43852,1.13705 0.79731,2.1656 0.79731,2.28565 0,0.23074 -2.55376,0.31945 -27.25208,0.94665 -34.63407,0.87952 -38.23357,0.91961 -57.28229,0.63794 -13.77466,-0.20368 -20.58506,-0.19772 -25.532287,0.0223 -7.510771,0.33409 -17.363034,0.52504 -18.785418,0.36409 z"
       id="path201" />
    <path
       style="fill:#000000;stroke-width:0.26458332"
       d="m 60.947413,97.691127 c 0.429006,-0.3189 0.849845,-0.9642 0.990426,-1.51869 0.6038,-2.381528 -2.581614,-23.355991 -3.905552,-25.71622 -0.317196,-0.56548 -1.051959,-1.358691 -1.63281,-1.76268 -1.03061,-0.716809 -1.186929,-0.74113 -6.480045,-1.008161 -9.318583,-0.470109 -20.42605,-0.729339 -22.33952,-0.521369 -2.01204,0.218681 -2.19952,0.359712 -3.15642,2.37435 -0.84443,1.777841 -0.76083,6.081022 0.18607,9.577742 0.9224,3.406277 3.44162,10.497939 4.49275,12.647258 1.39011,2.842421 3.561416,3.92017 10.124101,5.025181 5.388409,0.90729 12.659172,1.55158 16.9585,1.50274 3.623075,-0.0412 4.089599,-0.0999 4.7625,-0.600151 z"
       id="path199" />
    <path
       style="fill:#000000;stroke-width:0.26458332"
       d="M 49.654849,96.780457 C 39.351473,95.759298 34.30125,94.837048 32.325257,93.615818 c -1.310945,-0.810209 -2.311975,-2.513639 -3.696445,-6.290161 -3.58511,-9.779368 -4.40475,-14.64913 -2.94177,-17.478209 0.87272,-1.68766 1.04159,-1.719061 8.163638,-1.51806 15.870724,0.447929 20.280993,0.663879 21.173435,1.03677 1.163973,0.486338 1.956424,1.523741 2.437119,3.190449 0.859642,2.980621 2.963111,16.497879 3.213428,20.650031 0.144796,2.4018 0.109334,2.720139 -0.36821,3.305479 -0.483867,0.59309 -0.737761,0.65328 -3.010331,0.7137 -1.365044,0.0363 -4.803616,-0.164118 -7.641272,-0.44536 z"
       id="path197" />
    <path
       style="fill:#000000;stroke-width:0.26458332"
       d="m 338.57983,58.134386 c 3.04398,-0.561139 4.24014,-1.023358 4.22558,-1.63286 -0.014,-0.588647 -4.362,-4.954839 -4.93411,-4.954839 -0.29694,0 -1.41983,0.405969 -2.49536,0.902161 -3.56095,1.642851 -4.99605,2.008259 -7.88723,2.008259 -3.22456,0 -5.21745,0.38536 -5.58967,1.080841 -0.42344,0.791229 0.0875,1.402339 1.50998,1.805948 5.15625,1.463 10.11968,1.721631 15.17081,0.79049 z"
       id="path195" />
    <path
       style="fill:#000000;stroke-width:0.26458332"
       d="m 354.37866,85.754267 c 0.1484,-2.102861 -0.16899,-7.33176 -0.73403,-12.092451 -0.35097,-2.957049 -1.76983,-7.819659 -3.03671,-10.407218 -0.72628,-1.483432 -0.94308,-2.144332 -0.66561,-2.02913 1.10294,0.45792 1.36253,0.40331 2.23636,-0.47055 1.76131,-1.76131 1.76787,-4.150252 0.0209,-7.620731 -1.40589,-2.79288 -5.83123,-6.66248 -10.07817,-8.81253 -1.56276,-0.791159 -5.98027,-1.966539 -8.3036,-2.209379 -1.31876,-0.13784 -1.68548,-0.0844 -2.1204,0.30925 -0.63074,0.57081 -0.67688,1.376029 -0.11446,1.997488 0.22627,0.250042 -2.36334,-0.935299 -5.75469,-2.634078 -9.87271,-4.94539 -16.89147,-7.686471 -25.82775,-10.086671 -7.65841,-2.056971 -11.47646,-2.829779 -16.93489,-3.427751 -2.71867,-0.297828 -5.35977,-0.613399 -5.86909,-0.701259 -0.50933,-0.0879 -23.87445,-0.23553 -51.92249,-0.328139 l -50.99647,-0.168392 1.0555,-1.587499 c 1.65765,-2.49317 1.32012,-3.50841 -0.58987,-1.77421 -0.62209,0.56484 -1.82032,1.58206 -2.66273,2.26049 l -1.53165,1.233511 h -2.28756 -2.28757 l 2.4963,-1.264031 c 1.37296,-0.69522 4.28224,-2.40546 6.46505,-3.80054 4.76668,-3.04647 5.2982,-3.32731 6.93209,-3.66269 3.21992,-0.66094 23.33774,-1.85232 31.32129,-1.85485 l 3.85754,-0.001 0.44916,2.09017 c 0.24703,1.14959 0.68589,2.39112 0.97523,2.75897 1.11837,1.42177 1.91624,1.45307 18.37719,0.72081 13.68875,-0.60893 33.25032,-0.8658 42.06875,-0.55241 15.45849,0.54936 18.65313,0.61715 18.65313,0.39581 0,-0.11939 -0.49255,-0.973069 -1.09456,-1.89706 -0.60201,-0.92398 -1.02235,-1.75216 -0.93411,-1.84039 0.31988,-0.31988 10.42046,1.95439 16.75551,3.772711 11.08887,3.18277 26.92503,10.465141 34.5204,15.874459 2.75629,1.962981 7.79105,6.94494 10.00265,9.897761 2.09939,2.802999 3.45636,5.55842 3.45636,7.018341 0,1.494628 -1.15012,3.21234 -3.26224,4.872188 -2.27504,1.78789 -2.5586,2.524231 -2.5586,6.644201 0,2.89773 0.0701,3.359861 0.79396,5.237019 0.86061,2.231581 1.44921,2.917791 3.75259,4.374931 1.74204,1.102032 1.84896,1.23649 1.88008,2.36448 0.0435,1.577761 -1.61015,4.352171 -4.22815,7.093641 l -2.43277,2.547498 z"
       id="path193" />
    <path
       style="fill:#000000;stroke-width:0.26458332"
       d="m 357.91444,73.886128 c -1.65105,-1.557499 -1.8733,-1.88835 -2.14381,-3.191471 -0.40214,-1.937088 -0.4041,-5.76717 -0.004,-7.22494 0.25358,-0.923239 0.75518,-1.58528 2.34945,-3.100951 1.11487,-1.059899 2.22094,-1.930649 2.45795,-1.934998 0.53449,-0.01 0.87419,0.845978 1.41465,3.563958 1.05571,5.309071 1.04103,9.905043 -0.0403,12.607502 -0.36004,0.899779 -0.51159,1.01854 -1.29989,1.01854 -0.73586,0 -1.21542,-0.30475 -2.73437,-1.73764 z"
       id="path191" />
    <path
       style="fill:#000000;stroke-width:0.26458332"
       d="m 361.51558,73.336707 c 0.35314,-0.538959 0.48329,-1.44799 0.5669,-3.959558 0.12972,-3.895252 -0.0914,-5.972263 -0.71824,-6.746322 -1.51596,-1.87211 -2.85977,2.932361 -2.17562,7.77835 0.47096,3.335891 1.34165,4.431321 2.32696,2.92753 z"
       id="path189" />
    <path
       style="fill:#000000;stroke-width:0.26458332"
       d="m 1.5420823,54.704288 c -0.57740997,-0.231351 -0.60712997,-0.343921 -0.4321,-1.636871 0.40905,-3.021809 3.12978,-13.079259 3.68964,-13.63912 0.0871,-0.0871 0.57317,0.256601 1.08024,0.76368 l 0.92197,0.92197 -0.78907,3.033551 c -0.43399,1.66846 -1.07888,4.61414 -1.43309,6.545969 -0.35421,1.931821 -0.78975,3.68799 -0.96786,3.902601 -0.36355,0.43805 -1.14462,0.478888 -2.06973,0.10822 z"
       id="path187" />
    <path
       style="fill:#000000;stroke-width:0.26458332"
       d="m 7.8506823,41.295427 c 0,-0.286311 -0.41672,-1.066321 -0.92604,-1.733359 -0.50932,-0.667041 -0.92604,-1.507821 -0.92604,-1.8684 0,-2.1018 4.7156097,-8.678921 9.7688297,-13.625121 8.60463,-8.4224 17.685262,-12.72949 39.70825,-18.8342999 12.499723,-3.46494 17.426469,-4.37480997 25.929167,-4.78856997 14.75687,-0.71811999 17.042664,0.0134 19.559081,6.25920997 2.69561,6.6905599 5.63076,11.5664899 8.71291,14.4740399 1.4703,1.387 2.25523,1.89495 3.92088,2.53729 2.32375,0.89614 10.24311,2.90022 14.90296,3.77136 1.67349,0.312849 3.07532,0.59839 3.11519,0.63454 0.17503,0.158689 -3.22821,1.23753 -5.88066,1.86418 -2.79719,0.66085 -3.08645,0.678439 -8.33438,0.50678 -5.33849,-0.174609 -5.44979,-0.167301 -6.167,0.40512 l -0.73039,0.58294 0.53674,0.75378 c 0.32476,0.456091 0.43195,0.818549 0.27141,0.91777 -0.14593,0.0902 -2.02332,0.27096 -4.17198,0.401709 -2.14865,0.130741 -5.81164,0.417071 -8.139977,0.63627 -2.328326,0.219202 -6.138326,0.576961 -8.466659,0.79502 -4.796796,0.449252 -12.715198,0.855292 -21.792939,1.117502 l -6.182524,0.17857 0.295545,-0.552222 c 0.369422,-0.69028 0.387483,-3.625009 0.02646,-4.299588 -0.553066,-1.03342 -1.91711,-1.12491 -14.018416,-0.9403 -13.304985,0.202978 -31.658878,0.866119 -33.131838,1.197068 -0.55557,0.12483 -1.30571,0.420642 -1.66699,0.657352 -0.78415,0.513799 -3.10075,5.17816 -3.68408,7.417718 -0.22151,0.850442 -0.4343397,1.577141 -0.4729397,1.614892 -0.0386,0.0378 -0.51668,0.152048 -1.06238,0.253979 -0.87313,0.1631 -0.99219,0.12287 -0.99219,-0.33523 z"
       id="path185" />
    <path
       style="fill:#000000;stroke-width:0.26458332"
       d="m 135.51213,31.808138 c -2.91041,-0.196921 -6.24416,-0.450701 -7.40833,-0.563951 l -2.11667,-0.205909 2.25736,-0.60333 c 1.24155,-0.331832 2.89048,-0.896662 3.6643,-1.25517 0.77381,-0.35851 1.69164,-0.651841 2.03963,-0.651841 0.34798,0 3.16389,0.362929 6.25758,0.806511 9.61834,1.379099 12.7931,1.31258 20.03856,-0.41988 2.26646,-0.541941 3.3381,-0.656331 5.57325,-0.59494 l 2.76724,0.076 -2.24896,0.89313 c -3.22752,1.281729 -7.81584,2.377591 -11.21484,2.678499 -3.97428,0.35184 -13.15885,0.27731 -19.60912,-0.159128 z"
       id="path183" />
    <path
       style="fill:#000000;stroke-width:0.26458332"
       d="m 220.42247,21.273327 c -0.97642,-0.42516 -1.59352,-1.61356 -1.8528,-3.56809 l -0.18885,-1.42364 27.48961,0.15869 c 15.11929,0.0873 29.93039,0.28074 32.91357,0.42992 8.35787,0.41794 14.06697,0.83965 14.71795,1.08716 0.47887,0.18207 1.68622,2.21608 1.68622,2.84079 0,0.15385 -6.65819,-0.054 -15.74269,-0.49149 -7.83243,-0.37717 -35.10941,0.14846 -49.4771,0.95345 -8.26331,0.46297 -8.51222,0.46331 -9.54591,0.0132 z"
       id="path107" />
  </g>
</svg>
