<?xml version="1.0" encoding="UTF-8" standalone="no"?>
<!-- Created with Inkscape (http://www.inkscape.org/) -->

<svg
   xmlns:dc="http://purl.org/dc/elements/1.1/"
   xmlns:cc="http://creativecommons.org/ns#"
   xmlns:rdf="http://www.w3.org/1999/02/22-rdf-syntax-ns#"
   xmlns:svg="http://www.w3.org/2000/svg"
   xmlns="http://www.w3.org/2000/svg"
   xmlns:sodipodi="http://sodipodi.sourceforge.net/DTD/sodipodi-0.dtd"
   xmlns:inkscape="http://www.inkscape.org/namespaces/inkscape"
   width="683"
   height="245"
   viewBox="0 0 365.03504 130.94229"
   version="1.1"
   id="svg124"
   sodipodi:docname="df-patroon2.svg"
   inkscape:version="0.92.3 (2405546, 2018-03-11)">
  <defs
     id="defs118" />
  <sodipodi:namedview
     id="base"
     pagecolor="#ffffff"
     bordercolor="#666666"
     borderopacity="1.0"
     inkscape:pageopacity="0.0"
     inkscape:pageshadow="2"
     inkscape:zoom="1.4"
     inkscape:cx="433.16411"
     inkscape:cy="126.31145"
     inkscape:document-units="mm"
     inkscape:current-layer="layer1"
     showgrid="false"
     inkscape:window-width="1920"
     inkscape:window-height="1015"
     inkscape:window-x="0"
     inkscape:window-y="0"
     inkscape:window-maximized="1"
     units="px"
     scale-x="2.02" />
  <metadata
     id="metadata121">
    <rdf:RDF>
      <cc:Work
         rdf:about="">
        <dc:format>image/svg+xml</dc:format>
        <dc:type
           rdf:resource="http://purl.org/dc/dcmitype/StillImage" />
        <dc:title></dc:title>
      </cc:Work>
    </rdf:RDF>
  </metadata>
  <g
     inkscape:label="Layer 1"
     inkscape:groupmode="layer"
     id="layer1"
     transform="translate(0,-232.17706)">
    <path
       style="fill:#000000;stroke-width:0.26458332"
       d="m 239.47449,359.65371 c -15.21935,-1.69329 -27.91354,-13.59053 -30.6098,-28.68813 -0.56223,-3.14819 -0.55277,-8.54461 0.0206,-11.76361 1.21561,-6.82433 4.3563,-12.88622 9.33755,-18.02252 4.11023,-4.23817 8.87546,-7.24759 14.37245,-9.07674 4.53424,-1.50879 6.86258,-1.83584 11.90625,-1.67238 4.7272,0.15321 6.34638,0.38751 9.76349,1.41284 9.04096,2.71278 17.56412,9.99809 21.54559,18.41642 1.13221,2.39391 2.38848,6.32468 2.85467,8.93203 0.46773,2.61602 0.46641,9.65694 -0.003,12.03855 -1.43785,7.30674 -4.79438,13.39131 -10.32724,18.72082 -6.75329,6.50508 -13.83255,9.48191 -23.38656,9.83405 -1.77421,0.0654 -4.23786,0.006 -5.47479,-0.13133 z"
       id="path209"
       inkscape:connector-curvature="0" />
    <path
       style="fill:#000000;stroke-width:0.26458332"
       d="m 248.35541,354.62664 c 12.04947,-1.67592 21.66791,-10.43698 24.57063,-22.38045 0.38584,-1.58743 0.44347,-2.83079 0.35581,-7.67293 -0.10234,-5.64902 -0.12319,-5.83274 -0.93194,-8.19839 -1.76586,-5.16541 -4.45548,-9.56033 -7.99148,-13.05825 -5.32644,-5.26909 -11.47147,-8.15423 -18.60976,-8.73744 -9.17671,-0.74976 -16.81725,1.87554 -23.03171,7.91372 -6.08318,5.91063 -8.98178,12.7939 -8.98178,21.32893 0,8.14106 2.9185,15.44379 8.54853,21.39037 3.51418,3.71177 7.64934,6.35665 12.44279,7.9585 4.88691,1.63308 9.111,2.08432 13.62891,1.45594 z"
       id="path207"
       inkscape:connector-curvature="0" />
    <path
       style="fill:#000000;stroke-width:0.26458332"
       d="m 241.59116,353.97749 c -0.21829,-0.0428 -1.28985,-0.22291 -2.38125,-0.40033 -6.03595,-0.9812 -12.68727,-4.69184 -16.84355,-9.39668 -2.10994,-2.38839 -3.39427,-4.33506 -4.87831,-7.39405 -4.75721,-9.80587 -3.95786,-20.7837 2.15752,-29.62991 2.83232,-4.09709 7.77112,-8.05092 12.4194,-9.94256 6.04323,-2.45931 13.06999,-2.77364 19.17722,-0.85784 6.32725,1.98481 11.65779,5.75462 15.74803,11.13716 1.85925,2.44665 4.09022,7.06928 4.94355,10.24313 0.65114,2.42176 0.71139,3.06037 0.71139,7.54063 0,4.47483 -0.0609,5.1218 -0.70932,7.54064 -0.7828,2.91993 -2.49701,6.69827 -4.10779,9.05408 -4.26265,6.23424 -11.21475,10.60033 -18.85066,11.8387 -2.1731,0.35242 -6.2062,0.49823 -7.38623,0.26703 z"
       id="path205"
       inkscape:connector-curvature="0" />
    <path
       style="fill:#000000;stroke-width:0.26458332"
       d="m 57.970325,350.14127 c -7.120787,-0.86261 -14.040819,-3.57515 -19.314584,-7.57099 -3.14285,-2.38128 -5.807077,-4.95886 -5.239292,-5.06888 0.223604,-0.0433 3.131029,0.40236 6.460945,0.99042 5.97929,1.05595 29.017592,4.39382 35.6861,5.17032 1.890879,0.22018 4.391192,0.40215 5.55625,0.40438 2.906657,0.006 3.231708,0.28222 1.431647,1.2185 -4.291216,2.23202 -8.5966,3.74385 -12.674816,4.45074 -3.036536,0.52633 -9.181354,0.73562 -11.90625,0.40551 z"
       id="path203"
       inkscape:connector-curvature="0" />
    <path
       style="fill:#000000;stroke-width:0.26458332"
       d="m 61.325389,330.14648 c 0.429006,-0.3189 0.849845,-0.9642 0.990426,-1.51869 0.6038,-2.38153 -2.581614,-23.35599 -3.905552,-25.71622 -0.317196,-0.56548 -1.051959,-1.35869 -1.63281,-1.76268 -1.03061,-0.71681 -1.186929,-0.74113 -6.480045,-1.00816 -9.318583,-0.47011 -20.42605,-0.72934 -22.33952,-0.52137 -2.01204,0.21868 -2.19952,0.35971 -3.15642,2.37435 -0.84443,1.77784 -0.76083,6.08102 0.18607,9.57774 0.9224,3.40628 3.44162,10.49794 4.49275,12.64726 1.39011,2.84242 3.561416,3.92017 10.124101,5.02518 5.388409,0.90729 12.659172,1.55158 16.9585,1.50274 3.623075,-0.0412 4.089599,-0.0999 4.7625,-0.60015 z"
       id="path199"
       inkscape:connector-curvature="0" />
    <path
       style="fill:#000000;stroke-width:0.26458332"
       d="m 50.032825,329.23581 c -10.303376,-1.02116 -15.353599,-1.94341 -17.329592,-3.16464 -1.310945,-0.81021 -2.311975,-2.51364 -3.696445,-6.29016 -3.58511,-9.77937 -4.40475,-14.64913 -2.94177,-17.47821 0.87272,-1.68766 1.04159,-1.71906 8.163638,-1.51806 15.870724,0.44793 20.280993,0.66388 21.173435,1.03677 1.163973,0.48634 1.956424,1.52374 2.437119,3.19045 0.859642,2.98062 2.963111,16.49788 3.213428,20.65003 0.144796,2.4018 0.109334,2.72014 -0.36821,3.30548 -0.483867,0.59309 -0.737761,0.65328 -3.010331,0.7137 -1.365044,0.0363 -4.803616,-0.16412 -7.641272,-0.44536 z"
       id="path197"
       inkscape:connector-curvature="0" />
    <path
       style="fill:#000000;stroke-width:0.26458332"
       d="m 338.95781,290.58974 c 3.04398,-0.56114 4.24014,-1.02336 4.22558,-1.63286 -0.014,-0.58865 -4.362,-4.95484 -4.93411,-4.95484 -0.29694,0 -1.41983,0.40597 -2.49536,0.90216 -3.56095,1.64285 -4.99605,2.00826 -7.88723,2.00826 -3.22456,0 -5.21745,0.38536 -5.58967,1.08084 -0.42344,0.79123 0.0875,1.40234 1.50998,1.80595 5.15625,1.463 10.11968,1.72163 15.17081,0.79049 z"
       id="path195"
       inkscape:connector-curvature="0" />
    <path
       style="fill:#000000;stroke-width:0.26458332"
       d="m 354.75664,318.20962 c 0.1484,-2.10286 -0.16899,-7.33176 -0.73403,-12.09245 -0.35097,-2.95705 -1.76983,-7.81966 -3.03671,-10.40722 -0.72628,-1.48343 -0.94308,-2.14433 -0.66561,-2.02913 1.10294,0.45792 1.36253,0.40331 2.23636,-0.47055 1.76131,-1.76131 1.76787,-4.15025 0.0209,-7.62073 -1.40589,-2.79288 -5.83123,-6.66248 -10.07817,-8.81253 -1.56276,-0.79116 -5.98027,-1.96654 -8.3036,-2.20938 -1.31876,-0.13784 -1.68548,-0.0844 -2.1204,0.30925 -0.63074,0.57081 -0.67688,1.37603 -0.11446,1.99749 0.22627,0.25004 -2.36334,-0.9353 -5.75469,-2.63408 -9.87271,-4.94539 -16.89147,-7.68647 -25.82775,-10.08667 -7.65841,-2.05697 -11.47646,-2.82978 -16.93489,-3.42775 -2.71867,-0.29783 -5.35977,-0.6134 -5.86909,-0.70126 -0.50933,-0.0879 -23.87445,-0.23553 -51.92249,-0.32814 l -50.99647,-0.16839 1.0555,-1.5875 c 1.65765,-2.49317 1.32012,-3.50841 -0.58987,-1.77421 -0.62209,0.56484 -1.82032,1.58206 -2.66273,2.26049 l -1.53165,1.23351 h -2.28756 -2.28757 l 2.4963,-1.26403 c 1.37296,-0.69522 4.28224,-2.40546 6.46505,-3.80054 4.76668,-3.04647 5.2982,-3.32731 6.93209,-3.66269 3.21992,-0.66094 23.33774,-1.85232 31.32129,-1.85485 l 3.85754,-0.001 0.44916,2.09017 c 0.24703,1.14959 0.68589,2.39112 0.97523,2.75897 1.11837,1.42177 1.91624,1.45307 18.37719,0.72081 13.68875,-0.60893 33.25032,-0.8658 42.06875,-0.55241 15.45849,0.54936 18.65313,0.61715 18.65313,0.39581 0,-0.11939 -0.49255,-0.97307 -1.09456,-1.89706 -0.60201,-0.92398 -1.02235,-1.75216 -0.93411,-1.84039 0.31988,-0.31988 10.42046,1.95439 16.75551,3.77271 11.08887,3.18277 26.92503,10.46514 34.5204,15.87446 2.75629,1.96298 7.79105,6.94494 10.00265,9.89776 2.09939,2.803 3.45636,5.55842 3.45636,7.01834 0,1.49463 -1.15012,3.21234 -3.26224,4.87219 -2.27504,1.78789 -2.5586,2.52423 -2.5586,6.6442 0,2.89773 0.0701,3.35986 0.79396,5.23702 0.86061,2.23158 1.44921,2.91779 3.75259,4.37493 1.74204,1.10204 1.84896,1.23649 1.88008,2.36448 0.0435,1.57776 -1.61015,4.35217 -4.22815,7.09364 l -2.43277,2.5475 z"
       id="path193"
       inkscape:connector-curvature="0" />
    <path
       style="fill:#000000;stroke-width:0.26458332"
       d="m 358.29242,306.34148 c -1.65105,-1.5575 -1.8733,-1.88835 -2.14381,-3.19147 -0.40214,-1.93709 -0.4041,-5.76717 -0.004,-7.22494 0.25358,-0.92324 0.75518,-1.58528 2.34945,-3.10095 1.11487,-1.0599 2.22094,-1.93065 2.45795,-1.935 0.53449,-0.01 0.87419,0.84598 1.41465,3.56396 1.05571,5.30907 1.04103,9.90504 -0.0403,12.6075 -0.36004,0.89978 -0.51159,1.01854 -1.29989,1.01854 -0.73586,0 -1.21542,-0.30475 -2.73437,-1.73764 z"
       id="path191"
       inkscape:connector-curvature="0" />
    <path
       style="fill:#000000;stroke-width:0.26458332"
       d="m 361.89356,305.79206 c 0.35314,-0.53896 0.48329,-1.44799 0.5669,-3.95956 0.12972,-3.89525 -0.0914,-5.97226 -0.71824,-6.74632 -1.51596,-1.87211 -2.85977,2.93236 -2.17562,7.77835 0.47096,3.33589 1.34165,4.43132 2.32696,2.92753 z"
       id="path189"
       inkscape:connector-curvature="0" />
    <path
       style="fill:#000000;stroke-width:0.26458332"
       d="m 1.9200585,287.15964 c -0.57741,-0.23135 -0.60713,-0.34392 -0.4321,-1.63687 0.40905,-3.02181 3.12978,-13.07926 3.68964,-13.63912 0.0871,-0.0871 0.57317,0.2566 1.08024,0.76368 l 0.92197,0.92197 -0.78907,3.03355 c -0.43399,1.66846 -1.07888,4.61414 -1.43309,6.54597 -0.35421,1.93182 -0.78975,3.68799 -0.96786,3.9026 -0.36355,0.43805 -1.14462,0.47889 -2.06973,0.10822 z"
       id="path187"
       inkscape:connector-curvature="0" />
    <path
       style="fill:#000000;stroke-width:0.26458332"
       d="m 8.2286585,273.75078 c 0,-0.28631 -0.41672,-1.06632 -0.92604,-1.73336 -0.50932,-0.66704 -0.92604,-1.50782 -0.92604,-1.8684 0,-2.1018 4.7156095,-8.67892 9.7688295,-13.62512 8.60463,-8.4224 17.685262,-12.72949 39.70825,-18.8343 12.499723,-3.46494 17.426469,-4.37481 25.929167,-4.78857 14.75687,-0.71812 17.042664,0.0134 19.559085,6.25921 2.69561,6.69056 5.63076,11.56649 8.71291,14.47404 1.4703,1.387 2.25523,1.89495 3.92088,2.53729 2.32375,0.89614 10.24311,2.90022 14.90296,3.77136 1.67349,0.31285 3.07532,0.59839 3.11519,0.63454 0.17503,0.15869 -3.22821,1.23753 -5.88066,1.86418 -2.79719,0.66085 -3.08645,0.67844 -8.33438,0.50678 -5.33849,-0.17461 -5.44979,-0.1673 -6.167,0.40512 l -0.73039,0.58294 0.53674,0.75378 c 0.32476,0.45609 0.43195,0.81855 0.27141,0.91777 -0.14593,0.0902 -2.02332,0.27096 -4.17198,0.40171 -2.08183,0.19756 -5.67801,0.48389 -8.006346,0.70309 -2.328326,0.2192 -6.271961,0.51014 -8.600294,0.7282 -4.796796,0.44925 -12.715198,0.85529 -21.792939,1.1175 l -6.182524,0.17857 0.295545,-0.55222 c 0.369422,-0.69028 0.387483,-3.62501 0.02646,-4.29959 -0.553066,-1.03342 -1.91711,-1.12491 -14.018416,-0.9403 -13.304985,0.20298 -31.658878,0.86612 -33.131838,1.19707 -0.55557,0.12483 -1.30571,0.42064 -1.66699,0.65735 -0.78415,0.5138 -3.10075,5.17816 -3.68408,7.41772 -0.22151,0.85044 -0.43434,1.57714 -0.47294,1.61489 -0.0386,0.0378 -0.5166795,0.15205 -1.0623795,0.25398 -0.87313,0.1631 -0.99219,0.12287 -0.99219,-0.33523 z"
       id="path185"
       inkscape:connector-curvature="0" />
    <path
       id="path183"
       style="fill:#000000;stroke-width:0.26458332"
       d="m 135.89011,264.26349 c -2.91041,-0.19692 -6.24416,-0.4507 -7.40833,-0.56395 l -2.11667,-0.20591 2.25736,-0.60333 c 1.24155,-0.33183 2.89048,-0.89666 3.6643,-1.25517 0.77381,-0.35851 1.69164,-0.65184 2.03963,-0.65184 0.34798,0 3.16389,0.36293 6.25758,0.80651 9.61834,1.3791 12.7931,1.31258 20.03856,-0.41988 2.26646,-0.54194 3.3381,-0.65633 5.57325,-0.59494 l 2.76724,0.076 -2.24896,0.89313 c -3.22752,1.28173 -7.81584,2.37759 -11.21484,2.6785 -3.97428,0.35184 -13.15885,0.27731 -19.60912,-0.15913 z m -55.165619,78.58239 c -0.509323,-0.0576 -2.29526,-0.23276 -3.96875,-0.38916 -3.124626,-0.29203 -23.974687,-3.08024 -28.707291,-3.83894 -6.357073,-1.01912 -20.652622,-3.63352 -23.680212,-4.33069 -4.20878,-0.96917 -7.30913,-2.09859 -9.86029,-3.59198 -4.9400695,-2.89182 -6.2564295,-5.36443 -10.1003895,-18.97235 -2.87655,-10.18321 -3.33109,-12.33286 -3.50533998,-16.57787 -0.0874,-2.12894 -0.0767,-4.52834 0.0237,-5.332 l 0.18255998,-1.46119 1.81577,0.1026 c 1.58023,0.0893 1.851,0.0368 2.08737,-0.40491 0.14939,-0.27913 0.75491,-2.82202 1.3456,-5.65087 1.49633,-7.16599 1.4504,-7.03029 2.44639,-7.22949 0.45789,-0.0916 0.88147,-0.11755 0.9413,-0.0577 0.0598,0.0598 -0.12509,0.92386 -0.41094,1.92007 -0.76544,2.66766 -1.89903,8.06663 -1.89903,9.04455 0,1.2164 0.78887,1.4471 4.4291495,1.29524 l 2.97394,-0.12405 1.73809,-1.8773 c 1.95982,-2.11678 3.70467,-3.43819 8.85049,-6.70262 4.85212,-3.07812 7.395733,-4.48878 11.197433,-6.20996 5.671608,-2.56776 5.586458,-2.54657 10.630689,-2.64515 16.298894,-0.31854 29.487907,-0.67083 33.469791,-0.89401 10.326968,-0.57883 20.367709,-1.38247 29.983809,-2.39984 l 2.59942,-0.27501 2.95683,1.93019 c 4.74978,3.10064 9.66874,4.76387 15.52452,5.24927 4.07648,0.33791 15.58015,0.3252 17.72709,-0.0196 3.35766,-0.53922 11.09699,-2.60068 13.22354,-3.52222 3.95966,-1.71595 7.60619,-4.52653 10.10941,-7.7919 l 0.87642,-1.14326 45.37604,0.0272 c 45.7899,0.0274 56.19228,0.184 62.70624,0.94381 1.96453,0.22915 4.5244,0.51714 5.68854,0.63999 4.43323,0.46779 13.4492,2.68215 20.4461,5.02164 8.21026,2.7452 24.25753,10.38524 28.9918,13.80289 1.82624,1.31835 6.93119,6.11646 9.26743,8.71041 2.06118,2.28849 3.64069,5.03003 4.94983,8.59137 1.52101,4.13755 1.74595,5.27469 2.35915,11.92445 0.53536,5.80586 0.54168,6.22015 0.13118,8.58625 -0.454,2.61654 -0.54716,2.90834 -0.92863,2.90834 -0.12996,0 -0.98613,0.52343 -1.90262,1.16317 -3.60482,2.51634 -14.04329,7.16887 -20.45174,9.11556 -9.40734,2.85763 -19.82089,4.76456 -36.24789,6.63772 -8.95559,1.02119 -15.75961,1.6757 -15.90532,1.53 -0.0638,-0.0638 0.2531,-1.11499 0.70419,-2.33593 0.45112,-1.22094 1.13543,-3.47005 1.52072,-4.99802 0.63691,-2.52589 0.70112,-3.24655 0.70728,-7.9375 0.007,-5.63843 -0.26291,-7.48919 -1.72653,-11.81909 -1.82984,-5.41349 -4.35412,-9.45634 -8.69612,-13.92772 -5.18837,-5.34295 -10.69547,-8.47728 -18.54069,-10.55228 -2.00742,-0.53095 -2.88834,-0.59567 -8.20208,-0.60256 -6.59891,-0.009 -7.854,0.17701 -12.8323,1.89737 -5.39147,1.86313 -9.5912,4.5188 -13.92814,8.80737 -4.51676,4.46638 -7.49885,9.28094 -9.34471,15.08694 -1.18148,3.71626 -1.4762,5.82876 -1.47999,10.60829 -0.005,6.00549 0.49608,8.89793 2.39199,13.81385 0.43852,1.13705 0.79731,2.1656 0.79731,2.28565 0,0.23074 -2.55376,0.31945 -27.25208,0.94665 -34.63407,0.87952 -38.23357,0.91961 -57.28229,0.63794 -13.77466,-0.20368 -20.58506,-0.19772 -25.532291,0.0223 -7.510771,0.33409 -17.363034,0.52504 -18.785418,0.36409 z"
       inkscape:connector-curvature="0" />
    <path
       style="fill:#000000;stroke-width:0.26458332"
       d="m 220.80045,253.72868 c -0.97642,-0.42516 -1.59352,-1.61356 -1.8528,-3.56809 l -0.18885,-1.42364 27.48961,0.15869 c 15.11929,0.0873 29.93039,0.28074 32.91357,0.42992 8.35787,0.41794 14.06697,0.83965 14.71795,1.08716 0.47887,0.18207 1.68622,2.21608 1.68622,2.84079 0,0.15385 -6.65819,-0.054 -15.74269,-0.49149 -7.83243,-0.37717 -35.10941,0.14846 -49.4771,0.95345 -8.26331,0.46297 -8.51222,0.46331 -9.54591,0.0132 z"
       id="path107"
       inkscape:connector-curvature="0" />
  </g>
</svg>
