<svg
   xmlns:dc="http://purl.org/dc/elements/1.1/"
   xmlns:cc="http://creativecommons.org/ns#"
   xmlns:rdf="http://www.w3.org/1999/02/22-rdf-syntax-ns#"
   xmlns:svg="http://www.w3.org/2000/svg"
   xmlns="http://www.w3.org/2000/svg"
   preserveAspectRatio="xMidYMid meet"
   viewBox="0 0 1376.000000 493.000000"
   version="1.0"
   class="df"
   id="df_curved">
  <metadata
     id="metadata70">
    <rdf:RDF>
      <cc:Work
         rdf:about="">
        <dc:format>image/svg+xml</dc:format>
        <dc:type
           rdf:resource="http://purl.org/dc/dcmitype/StillImage" />
        <dc:title></dc:title>
      </cc:Work>
    </rdf:RDF>
  </metadata>
  <defs
     id="defs45">
    <radialGradient
       gradientUnits="userSpaceOnUse"
       fy="1408.005"
       fx="9271.338"
       gradientTransform="matrix(0.09947128,0,0,-0.10053153,0,493)"
       r="1686.1969"
       cy="1408.005"
       cx="9271.338"
       id="wieldoekje">
      <stop
         id="stop40"
         style="stop-color:rgb(56,56,56);stop-opacity:1"
         offset="0%" />
      <stop
         id="stop42"
         style="stop-color:rgb(0,0,0);stop-opacity:1"
         offset="100%" />
    </radialGradient>
  </defs>
  <g
     id="g3892">
    <path
       style="stroke:#666666;stroke-width:1.5"
       id="path47"
       d="M 292.2,5.5 C 270.1,7.7 251.3,11.9 205.5,24.6 128.3,46.2 92.4,63.5 62,94 c -16.6,16.6 -35.7,41.8 -33.4,44 1.8,1.7 37.8,14 52.5,18 8.5,2.3 27.1,7.5 41.4,11.6 39.2,11.3 46.5,12.8 92.2,18.8 41.1,5.4 42.5,5.5 82.3,6.7 38.1,1.2 55.7,1 295.5,-3.5 140.3,-2.6 259.5,-5.2 265,-5.6 5.5,-0.5 26.9,-1.2 47.5,-1.6 52.1,-1 66.6,0.5 103.5,10.6 18.3,5 54.9,17 78.5,25.7 35.5,13.1 67.8,22.8 128,38.3 19.5,5.1 48.3,12.8 64,17.2 37,10.4 82.9085,20.8 87.6085,20.8 6.0598,0 -14.9066,-5.03044 -21.7136,-19.59707 -2.1795,-4.66389 -1.8256,-12.62161 -2.0196,-18.58774 -0.8082,-11.0201 -0.9801,-19.55672 7.3619,-25.42325 9.4892,-6.67334 15.1654,-14.42327 15.1077,-20.27218 -0.066,-6.6366 -4.0206,-12.57208 -6.7449,-17.41976 -7.8,-13.9 -29,-36.3 -45.2,-47.8 -24.3,-17.4 -77.8,-42.8 -117.2,-55.8 -14.1,-4.6 -41.8,-11.8 -60.2,-15.5 -6.9,-1.5 -13.5,-2.8 -14.7,-3.1 -3.5,-0.8 -2.9,2.3 1.7,8.9 2.2,3.1 4,5.9 4,6.1 0,0.9 -17.2,0.5 -43.5,-1 -14.3,-0.8 -42.9,-1.5 -63.5,-1.5 -44.1,0 -131.8,2.5 -157.6,4.4 -30.7,2.3 -34.8,0.5 -37.5,-16.8 -0.6,-3.3 -1.1,-6.1 -1.2,-6.2 -1.1,-0.8 -75.2,2.1 -95.2,3.6 -44.3,3.5 -40.7,2.9 -52,9.5 -5.5,3.3 -15.4,9.6 -22.2,14.1 -18.6,12.5 -41.1,20.4 -68.6,24 -15,2 -22.9,1.5 -55.2,-3.1 -35.1,-5.1 -45.7,-7 -68.8,-12.5 C 440.9,96 430.6,92.6 423.9,88.4 411.6,80.7 396.1,57.1 385.7,30 379,12.7 376.3,9.7 364.2,6 358.4,4.2 355.1,4 331.6,4.1 317.3,4.2 299.5,4.8 292.2,5.5 Z m 377.4,85.6 c 0.7,1.2 -11.9,20.3 -19.3,29.1 -7.2,8.6 -17.5,16.3 -29.9,22.4 -9.7,4.7 -14.1,6.1 -33,10.5 l -21.9,5.1 -33.5,0.2 c -28.3,0.1 -34.9,-0.2 -42.7,-1.7 -21.3,-4.1 -35.4,-9.6 -48.3,-18.8 -4.1,-3 -9.3,-6.3 -11.4,-7.4 -2.2,-1.1 -4.9,-3.2 -6,-4.8 l -2,-2.7 2.2,-2.3 c 2.9,-2.8 8.4,-2.9 38.2,-0.5 63.6,5.2 79.2,6 105.5,5.5 23.1,-0.4 27.3,-0.7 38.2,-3.1 24,-5.1 40.5,-12.8 53.1,-24.7 8.5,-8.1 9.6,-8.7 10.8,-6.8 z m 682.8,103.7 c 1.3,2.6 3.6,7.6 5,11.2 l 2.7,6.5 -2.7,5.7 c -1.5,3.2 -3.4,5.8 -4.1,5.8 -0.7,0 -7.3,-1.6 -14.5,-3.4 -30.8,-8 -61.1,-11.6 -98.6,-11.6 h -20.3 l -1.9,-4.3 c -1,-2.3 -2.2,-5.5 -2.6,-7.1 l -0.7,-2.9 46.4,0.5 c 53.7,0.7 75.9,-0.2 83.4,-3.1 2.8,-1.1 5.1,-2 5.2,-2.1 0.2,0 1.3,2.1 2.7,4.8 z"
       class="df_part svg_df_bovenhelft_carrosserie svg_df_top_half_body" />
    <path
       style="stroke:#666666;stroke-width:1.5"
       id="path49"
       d="m 836.1,64.7 -8.4,0.4 0.7,5.7 c 1,8.4 3.3,12.4 8.1,14.1 3.4,1.1 7.8,1.1 30,-0.3 29,-1.8 74.3,-3.2 136.5,-4.2 32.1,-0.5 48,-0.3 70.5,1 15.9,0.9 32.9,1.6 37.8,1.6 h 8.9 l -2,-3.3 c -1.1,-1.7 -2.2,-4.4 -2.6,-5.9 -0.4,-1.8 -1.4,-2.9 -2.9,-3.2 -6.2,-1.4 -45.3,-3.7 -76.7,-4.6 -36.4,-1.1 -184.9,-2.1 -199.9,-1.3 z"
       class="df_part svg_df_neuskap svg_df_front_nose_cover" />
    <path
       style="stroke:#666666;stroke-width:1.5"
       id="path51"
       d="m 26.3,144.2 c -2.4,3.1 -2.2,3.9 2.2,8.8 2.8,3.2 4.4,5.8 4.1,6.8 -3.3,11.5 -6.8,27.2 -8.5,37.5 -1.2,7.1 -2.9,14 -3.8,15.4 -1.5,2.3 -2.1,2.5 -7.2,2.1 -3.1,-0.3 -6.3,-0.7 -7.1,-0.9 -1.3,-0.3 -1.5,2.3 -1.5,19.6 0.1,19.6 0.2,20.3 3.7,34.5 6,24 18.5,67.1 21.8,75.6 7,17.7 14.3,25.8 30.7,34.2 14.5,7.4 28.9,11.1 72.3,18.7 11.3,2 27.7,4.9 36.5,6.5 8.8,1.6 25.2,4.1 36.5,5.5 11.3,1.4 35.8,4.8 54.5,7.5 41.6,5.9 64.8,7 96.5,4.5 22.5,-1.7 60.4,-1.9 140.5,-0.5 49,0.8 64.2,0.6 163,-2 60,-1.7 114.8,-3 121.9,-3 11.8,0 12.8,-0.1 12.1,-1.8 -10.1,-24.5 -12.8,-36.9 -12.9,-59.2 0,-11.8 0.5,-19 1.7,-25.3 11.5,-57.7 55.5,-101.1 113.7,-112.3 12.9,-2.4 37.9,-2.5 51,-0.1 20.1,3.7 42.3,13.3 59.1,25.3 10.6,7.7 26.1,23.8 33.6,35.1 11.1,16.6 18.4,35 21.7,54.2 2,11.9 2.1,32.7 0.1,44.9 -1.4,8.8 -6.3,25.1 -9.9,33.4 -0.9,2.1 -1.2,3.8 -0.7,3.8 0.4,0 10,-0.9 21.2,-2 118.7,-11.7 170.1,-22.7 224.9,-47.9 24.9,-11.5 35.6,-18.6 50.6,-33.5 9.9,-9.8 15.1,-17.2 17.7,-25 1,-2.7 1.7,-5.3 1.7,-5.7 0,-0.4 -1.7,-0.5 -3.7,-0.2 -4.4,0.6 -35.8,-7.1 -84.8,-20.7 -17.6,-4.9 -49.5,-13.5 -71,-19 -61.5,-16 -86.2,-23.5 -125,-37.8 -52.1,-19.1 -95.3,-31.3 -121,-34.1 -23.7,-2.6 -66.3,-2.2 -113,0.9 -8.2,0.6 -66.1,1.9 -128.5,3 -62.4,1.1 -140,2.7 -172.5,3.5 -32.4,0.8 -94.3,1.9 -137.5,2.6 -67.1,0.9 -84.3,0.9 -118,-0.5 -37.6,-1.4 -41.6,-1.8 -81.9,-7.1 -23.3,-3 -42.7,-5.7 -43.1,-6 -0.3,-0.2 -3.8,-1.1 -7.6,-1.9 -3.9,-0.8 -18,-4.6 -31.4,-8.4 -13.5,-3.9 -33.5,-9.6 -44.6,-12.6 -11.1,-3.1 -26.9,-8 -35.3,-11 -17.6,-6.4 -21.3,-7.3 -22.8,-5.4 z m 36.9,20 7,1.1 -0.5,5.1 c -3.8,33.6 -4.9,41 -7,43.9 l -2.2,2.9 -13.1,-0.4 c -14.4,-0.3 -15.8,-0.9 -19.1,-7.2 -3.9,-7.5 3.1,-35.7 11,-44.4 1.8,-1.9 3.1,-2.2 9.4,-2.2 4.1,0 10.6,0.5 14.5,1.2 z m 18.8,5.3 c 2.3,0.8 16.9,5.1 32.4,9.4 25.4,7.2 31,8.4 58.1,12.5 34.4,5.2 61.3,7.9 101.6,10.1 15.6,0.9 30.7,1.9 33.4,2.3 l 5,0.7 0.3,7.9 c 0.2,4.4 0.1,8.4 -0.1,9 -0.3,0.8 -8.6,0.7 -29.8,-0.5 -41.6,-2.4 -73.9,-3.2 -140.9,-3.4 -55.3,-0.1 -58.9,-0.2 -65.5,-2.1 -5.6,-1.6 -7.1,-2.4 -7.3,-4.1 -0.4,-2.5 3.3,-31.6 4.9,-38.6 1.2,-5.2 1.7,-5.4 7.9,-3.2 z m 81.3,89 c 25.2,0.9 47,2 48.5,2.6 4.7,1.8 8.9,5.6 11,10.2 3.6,7.6 14.2,75.8 14.2,91.1 0,12.8 -6.8,14.6 -42,11.3 -32.8,-3.1 -38.3,-3.8 -51,-6.3 -17,-3.4 -24.5,-7.2 -29.5,-14.7 -0.8,-1.3 -4.1,-9.5 -7.3,-18.2 C 91.9,293 89.7,276 97.9,262.6 c 3.9,-6.3 1.9,-6.2 65.4,-4.1 z"
       class="df_part svg_df_onderhelft_carrosserie svg_df_bottom_half_body" />
    <path
       style="stroke:#666666;stroke-width:1.5"
       id="path53"
       d="m 108.5,260.5 c -0.5,0.2 -2.2,0.6 -3.7,0.9 -5.6,1.3 -9.5,14.2 -7.8,25.4 2.1,13 8.2,33 16.9,55.6 3.1,8.1 7.3,13.6 12.3,16.2 3.6,1.9 15.6,5.1 26,6.8 8,1.4 43.1,4.9 63.4,6.3 8.4,0.6 14.2,-0.6 16.4,-3.2 2.9,-3.4 0.9,-23.8 -6.4,-66.8 -4.7,-27.4 -6.1,-31.7 -11.5,-35.4 -4.2,-2.9 -6.8,-3.1 -53.6,-4.3 -22,-0.6 -42.5,-1.2 -45.5,-1.4 -3,-0.2 -5.9,-0.3 -6.5,-0.1 z"
       class="df_part svg_df_derailleurkap svg_df_derailleur_cover" />
    <path
       style="stroke:#666666;stroke-width:1.5"
       id="path55"
       d="m 19.5,154.6 c -4,9.5 -11.2,37.9 -13,50.6 -0.6,4.6 -0.6,4.6 2.9,5.8 4.4,1.4 8.5,0.4 9.1,-2.4 0.3,-1.1 1.4,-7.5 2.5,-14 1,-6.6 3.4,-17.3 5.1,-23.8 l 3.3,-11.9 -4.1,-4.1 -4.1,-4.1 z"
       class="df_part svg_df_achterlichtkap svg_df_rear_light_cover" />
    <path
       style="fill:#000000;stroke:#666666;stroke-width:1.5"
       id="path57"
       d="m 910.5,221.6 c -60.1,6.5 -107.7,48.8 -119.5,105.9 -11.8,57.2 16.4,115.8 69,142.9 20.5,10.6 38.6,15 62.5,15 37.1,0.1 68,-12.3 94.1,-37.6 21.5,-20.9 34.1,-44.7 38.9,-73.7 2.5,-14.6 1.7,-36.7 -1.9,-50.7 -6.5,-26.1 -18,-45.9 -37.4,-64.6 -18.9,-18.3 -43.7,-30.9 -69.1,-35.3 -8.9,-1.6 -29.6,-2.6 -36.6,-1.9 z m 35.5,19.2 c 22.7,6 39.8,15.9 55.9,32.3 13.4,13.6 24.4,33 29.7,52.4 2.6,9.3 2.8,11.3 2.8,29 0,17.4 -0.2,19.8 -2.7,28.8 -7.7,28.4 -25.5,52.1 -50.3,67 -19.4,11.6 -44.1,17.1 -66.5,14.8 -39.6,-4.2 -74,-27.5 -92.1,-62.6 -16.5,-31.9 -17.8,-66.8 -3.8,-99.7 7.4,-17.2 22.7,-35.5 39,-46.3 13,-8.7 23.3,-13 39,-16.6 11.5,-2.6 37.7,-2.1 49,0.9 z"
       class="svg_df_front_tyre" />
    <path
       style="stroke:#666666;stroke-width:1.5"
       id="path59"
       d="m 907.1,240.1 c -37.3,4.3 -69.4,27.3 -85.5,61.2 -20.2,42.8 -10.5,94.9 24.1,129.3 37.7,37.6 95.8,43.9 139.4,15.2 30.5,-20.1 48.1,-53.5 48.2,-91.3 0.1,-31.2 -11.5,-58.8 -34.2,-81.6 -18.4,-18.4 -42.1,-29.8 -68.6,-32.9 -10.1,-1.1 -12.9,-1.1 -23.4,0.1 z"
       class="df_part svg_df_voorwieldeksels svg_df_front_wheel_covers" />
    <path
       style="stroke:#666666;stroke-width:1.5"
       id="path61"
       d="m 127,402 c 3.1,4.3 16.5,15.9 25.2,21.8 45.7,30.9 107.6,34.3 157.3,8.9 3.9,-2 8.3,-4.4 9.8,-5.5 l 2.8,-1.9 -15.8,-0.6 c -10.3,-0.4 -25.2,-2 -42.8,-4.6 -14.8,-2.2 -39.1,-5.6 -54,-7.6 -14.8,-1.9 -39.5,-5.7 -54.7,-8.5 -15.3,-2.7 -28.3,-5 -28.9,-5 -0.5,0 -0.1,1.4 1.1,3 z"
       class="svg_df_rear_tyre" />
    <path
       style="stroke:#666666;stroke-width:1.5"
       d="m 1349.5586,236.78918 c -7.5491,11.48466 -3.3334,36.4622 -1.0932,39.96923 6.1503,5.61673 12.7413,16.16254 20.9676,12.58789 8.5558,-14.99776 4.6998,-41.19844 1.0489,-55.96116 -3.2138,-19.15426 -7.5603,-7.22355 -20.9233,3.40404 z m 19.4428,4.22572 c 2.3452,7.92163 3.7594,28.56423 -0.3163,39.72487 -2.6157,3.47529 -4.1554,1.7667 -6.3584,-2.50525 -2.6762,-10.01012 -3.2527,-27.4698 0.6715,-36.96463 2.9413,-3.33251 4.6369,-2.68918 6.0032,-0.25499 z"
       id="path49-0"
       class="df_part svg_df_luchtinlaat svg_df_air_intake" />
  </g>
</svg>
